<svg width="30" height="31" viewBox="0 0 30 31" xmlns="http://www.w3.org/2000/svg">
    <g fill="none" fill-rule="evenodd">
        <path stroke="#8145EC" stroke-width="1.5" stroke-linecap="round" d="M26.821 8.886v16.727"/>
        <path d="M14.665 27.532c-4.915 0-9.879-1.645-9.879-4.936V8.337h9.879s.267 19.195 0 19.195" fill="#E2D9F7"/>
        <path d="M24.255 22.87c0 6.033-19.469 6.033-19.469 0V8.611h19.47v14.26z" stroke="#8145EC" stroke-width="1.5"/>
        <path d="M14.344 16.103 1.302 8.377A.616.616 0 0 1 1.35 7.29l13.042-6.23a.617.617 0 0 1 .531 0l13.042 6.23a.616.616 0 0 1 .049 1.086l-13.042 7.726a.616.616 0 0 1-.628 0" fill="#FFF"/>
        <path d="M14.344 16.103 1.302 8.377A.616.616 0 0 1 1.35 7.29l13.042-6.23a.617.617 0 0 1 .531 0l13.042 6.23a.616.616 0 0 1 .049 1.086l-13.042 7.726a.616.616 0 0 1-.628 0zM24.804 27.806a2.194 2.194 0 1 0 4.387 0 2.194 2.194 0 0 0-4.387 0z" stroke="#8145EC" stroke-width="1.5"/>
    </g>
</svg>
