<?xml version="1.0" encoding="utf-8"?>
<!-- Generator: Adobe Illustrator 25.4.0, SVG Export Plug-In . SVG Version: 6.00 Build 0)  -->
<svg version="1.1" id="Capa_1" xmlns="http://www.w3.org/2000/svg" xmlns:xlink="http://www.w3.org/1999/xlink" x="0px" y="0px"
	 viewBox="0 0 158 42" style="enable-background:new 0 0 158 42;" xml:space="preserve">
<style type="text/css">
	.st0{fill-rule:evenodd;clip-rule:evenodd;fill:#4A1162;}
	.st1{fill-rule:evenodd;clip-rule:evenodd;fill:#F6820E;}
	.st2{fill:#4A1162;}
</style>
<g id="Page-1">
	<g id="_x2D_OPCION-2---HOME-SAN-PABLO--" transform="translate(-62.000000, -48.000000)">
		<g id="Group-12-Copy" transform="translate(62.000000, 48.000000)">
			<g id="Clip-2">
			</g>
			<path class="st0" d="M36.7,25.6c-0.6-4.8-3.1-9.3-3.1-9.3s-5.6,6.1-9.2,6.2c-3.7,0-5.1-2.9-4.7-5.9c0.5-3,2-6.7,4.8-9.4
				c2.4-2.3,6.3-4.7,7.2-5.2c-2.9-1.3-6.1-2-9.5-2C10,0,0,9.4,0,21c0,1.6,0.2,3.2,0.6,4.7c0.9-0.3,7.5-2,13.2,2.3
				c2.9,2.2,4.1,4.2,4.8,6.6c0.7,2.5,0.7,3.9,0.8,5.4c0.1,1.9,1.1,2,2.1,2c1.6,0,2.2-0.5,2.3-2c0.1-1.1,0.1-2.2-0.1-4.4
				c-0.2-2-0.8-4.6-1.3-6c-0.5-1.4,1.3-1.8,1.8-0.6c0.5,1.2,1,3.3,1.3,5.5c0.2,1.6,0.3,3.9,0.4,5.2c0.2,1.7,1.5,1.7,2.5,1.4
				c1-0.3,2.2-1,2.1-2.7c-0.1-1.1-0.1-4-0.2-4.7c-0.4-3.1-0.9-5.3-1.1-6.2c-0.4-1.5,1.4-2.1,1.8-0.8c0.3,1,0.9,4.8,1.1,6.8
				c0.2,1.5,0.3,2.9,0.5,3.9c0.1,0.9,1.2,1.2,2.1,0.8c1-0.4,1.5-1.1,1.8-2.3C36.8,34.5,37.3,31.1,36.7,25.6z"/>
			<g>
				<path class="st1" d="M45,20.8C45,13.3,40.7,6.7,34.3,3c-1.3,0.8-7.5,4.4-9.8,7.8c-2.3,3.5-2.9,6.6-2.3,8.1
					c0.5,1.4,2.6,1.7,4.7,0.4c3.5-2.1,7.8-7,7.8-7s1.8,4,3,6.6c2.6,6.3,1.8,13.4,1.4,16C42.7,31.3,45,26.3,45,20.8z"/>
				<path class="st1" d="M12.6,29.4C8.2,26,2.7,27.1,1,27.5c2.4,6.8,8.5,12,16,13.5C17,38.9,16.6,32.5,12.6,29.4z"/>
			</g>
			<g>
				<rect x="92" y="3" class="st2" width="2.6" height="2.6"/>
				<rect x="92" y="7.9" class="st2" width="2.4" height="9.9"/>
				<rect x="58" y="4.1" class="st2" width="2.5" height="13.6"/>
				<path class="st2" d="M117.2,15c0,0.6,0.1,1.1,0.2,1.5c0.2,0.5,0.6,0.9,1.1,1.2c0.5,0.3,1.2,0.4,2,0.4c0.3,0,0.7,0,1.1-0.1
					c0.4,0,0.7-0.1,1-0.2v-2c-0.2,0.1-0.5,0.1-0.8,0.2c-0.3,0-0.6,0.1-0.8,0.1c-0.6,0-1-0.2-1.2-0.5c-0.1-0.2-0.2-0.5-0.2-0.8V9.9
					h2.9v-2h-2.9V5.1h-2.4v2.8h-1.9v2h1.9V15z"/>
				<path class="st2" d="M81,12.6c-0.3-0.2-0.6-0.4-0.9-0.5c-0.3-0.1-0.7-0.2-1-0.3c-0.2-0.1-0.4-0.1-0.7-0.2
					c-0.2-0.1-0.5-0.1-0.7-0.2c-0.2-0.1-0.4-0.2-0.5-0.3C77.1,11,77,10.8,77,10.6c0-0.1,0-0.3,0.1-0.4c0.1-0.1,0.1-0.2,0.3-0.3
					c0.1-0.1,0.3-0.2,0.5-0.2c0.2-0.1,0.4-0.1,0.7-0.1c0.2,0,0.5,0,0.7,0c0.3,0,0.5,0.1,0.8,0.1c0.3,0,0.5,0.1,0.8,0.2
					c0.3,0.1,0.5,0.1,0.7,0.2v-2c-0.4-0.2-0.9-0.3-1.4-0.4c-0.5-0.1-1.1-0.1-1.7-0.1c-0.5,0-1,0.1-1.4,0.2c-0.4,0.1-0.8,0.3-1.2,0.6
					c-0.3,0.3-0.6,0.6-0.8,1c-0.2,0.4-0.3,0.9-0.3,1.4c0,0.4,0.1,0.8,0.2,1.1c0.1,0.3,0.3,0.6,0.6,0.8c0.2,0.2,0.5,0.4,0.9,0.5
					c0.3,0.1,0.7,0.2,1,0.3c0.3,0.1,0.5,0.1,0.8,0.2c0.3,0.1,0.5,0.1,0.7,0.2c0.2,0.1,0.4,0.2,0.5,0.3c0.1,0.1,0.2,0.3,0.2,0.5
					c0,0.2-0.1,0.4-0.2,0.5c-0.1,0.1-0.3,0.3-0.4,0.4c-0.2,0.1-0.4,0.2-0.7,0.2C78,16,77.7,16,77.4,16c-0.4,0-0.8,0-1.3-0.1
					c-0.5-0.1-0.9-0.2-1.5-0.4v1.9c0.3,0.2,0.7,0.3,1.2,0.4c0.5,0.1,1.1,0.1,1.7,0.1c0.6,0,1.2-0.1,1.7-0.2c0.5-0.1,1-0.3,1.4-0.6
					c0.4-0.3,0.7-0.6,0.9-1c0.2-0.4,0.3-0.9,0.3-1.5c0-0.5-0.1-0.9-0.3-1.3C81.5,13.1,81.2,12.8,81,12.6z"/>
				<path class="st2" d="M72.5,17.7v-6.4c0-0.3,0-0.6,0-0.9c0-0.2-0.1-0.5-0.1-0.7c-0.1-0.4-0.3-0.7-0.5-1c-0.2-0.3-0.5-0.5-0.7-0.7
					c-0.3-0.2-0.6-0.3-0.9-0.4c-0.3-0.1-0.7-0.1-1.1-0.1c-0.4,0-0.7,0-1.1,0.1C67.6,7.9,67.3,8,67,8.1c-0.3,0.1-0.5,0.3-0.8,0.5
					c-0.2,0.2-0.4,0.4-0.5,0.6h0l-0.2-1.4h-2v9.9h2.4V11c0.3-0.4,0.7-0.7,1.2-1c0.4-0.2,0.9-0.3,1.4-0.3c0.4,0,0.7,0.1,0.9,0.2
					c0.2,0.1,0.4,0.4,0.6,0.7c0.1,0.1,0.1,0.3,0.1,0.5c0,0.2,0,0.4,0,0.7v6H72.5z"/>
				<path class="st2" d="M84.6,15c0,0.6,0.1,1.1,0.2,1.5c0.2,0.5,0.6,0.9,1.1,1.2c0.5,0.3,1.2,0.4,2,0.4c0.3,0,0.7,0,1.1-0.1
					c0.4,0,0.7-0.1,1-0.2v-2c-0.2,0.1-0.5,0.1-0.8,0.2C89,16,88.7,16,88.5,16c-0.6,0-1-0.2-1.2-0.5c-0.1-0.2-0.2-0.5-0.2-0.8V9.9
					h2.9v-2h-2.9V5.1h-2.4v2.8h-1.9v2h1.9V15z"/>
				<path class="st2" d="M102.3,17.9c0.4,0,0.7-0.1,1-0.2v-2c-0.2,0.1-0.5,0.1-0.8,0.2c-0.3,0-0.6,0.1-0.8,0.1c-0.6,0-1-0.2-1.2-0.5
					c-0.1-0.2-0.2-0.5-0.2-0.8V9.9h2.9v-2h-2.9V5.1h-2.4v2.8h-1.9v2h1.9V15c0,0.6,0.1,1.1,0.2,1.5c0.2,0.5,0.6,0.9,1.1,1.2
					c0.5,0.3,1.2,0.4,2,0.4C101.5,18,101.9,18,102.3,17.9z"/>
				<path class="st2" d="M131.1,17.6c0.6-0.2,1.1-0.6,1.6-1.1c0.4-0.5,0.8-1,1-1.6c0.2-0.6,0.4-1.3,0.4-2.1c0-0.8-0.1-1.5-0.3-2.1
					c-0.2-0.6-0.6-1.2-1-1.6c-0.4-0.5-1-0.8-1.6-1.1c-0.6-0.2-1.3-0.4-2.1-0.4c-0.8,0-1.4,0.1-2.1,0.4c-0.6,0.2-1.1,0.6-1.6,1.1
					c-0.4,0.5-0.8,1-1,1.6c-0.2,0.6-0.3,1.3-0.3,2.1c0,0.8,0.1,1.5,0.3,2.1c0.2,0.6,0.6,1.2,1,1.6c0.4,0.5,1,0.8,1.6,1.1
					c0.6,0.2,1.3,0.4,2.1,0.4C129.8,18,130.5,17.9,131.1,17.6z M127.2,15.2c-0.2-0.3-0.4-0.6-0.5-1c-0.1-0.4-0.2-0.9-0.2-1.4
					c0-0.5,0.1-1,0.2-1.4c0.1-0.4,0.3-0.7,0.5-1c0.2-0.3,0.5-0.5,0.8-0.6c0.3-0.1,0.6-0.2,1-0.2c0.4,0,0.7,0.1,1,0.2
					c0.3,0.1,0.6,0.3,0.8,0.6c0.2,0.3,0.4,0.6,0.5,1c0.1,0.4,0.2,0.9,0.2,1.4c0,0.5-0.1,1-0.2,1.4c-0.1,0.4-0.3,0.7-0.5,1
					c-0.2,0.3-0.5,0.5-0.8,0.6c-0.3,0.1-0.6,0.2-1,0.2c-0.4,0-0.7-0.1-1-0.2C127.7,15.7,127.5,15.5,127.2,15.2z"/>
				<path class="st2" d="M111.6,13.7c0,0.6-0.1,1-0.2,1.3c-0.2,0.3-0.4,0.6-0.7,0.7c-0.3,0.2-0.7,0.2-1.1,0.2
					c-0.4,0-0.8-0.1-1.1-0.2c-0.3-0.1-0.5-0.4-0.7-0.7c-0.1-0.2-0.2-0.4-0.2-0.6c0-0.2-0.1-0.5-0.1-0.9V7.9H105v6
					c0,0.4,0,0.9,0.1,1.2c0.1,0.4,0.2,0.7,0.4,1c0.3,0.6,0.8,1,1.5,1.4c0.7,0.3,1.5,0.5,2.5,0.5c0.5,0,1-0.1,1.4-0.1
					c0.4-0.1,0.8-0.2,1.1-0.4c0.3-0.2,0.6-0.4,0.9-0.7c0.3-0.3,0.5-0.5,0.6-0.8c0.3-0.5,0.4-1.2,0.4-2v-6h-2.4V13.7z"/>
				<path class="st2" d="M66.9,31.4c-0.5-0.3-1-0.6-1.6-0.8c-0.6-0.2-1.3-0.4-1.9-0.5c-0.4-0.1-0.8-0.2-1.2-0.3
					c-0.4-0.1-0.7-0.3-1-0.4c-0.3-0.2-0.5-0.4-0.7-0.7c-0.2-0.3-0.3-0.6-0.3-1c0-0.7,0.3-1.3,0.8-1.6c0.5-0.4,1.3-0.5,2.2-0.5
					c0.7,0,1.4,0.1,2.1,0.2c0.8,0.1,1.6,0.4,2.4,0.7v-2.6c-0.6-0.3-1.4-0.5-2.2-0.7c-0.9-0.2-1.7-0.3-2.6-0.3
					c-0.9,0-1.6,0.1-2.3,0.3c-0.7,0.2-1.3,0.5-1.8,0.9c-0.5,0.4-0.9,1-1.2,1.6c-0.3,0.6-0.4,1.4-0.4,2.3c0,0.8,0.1,1.4,0.4,2
					c0.3,0.5,0.6,1,1,1.3c0.4,0.3,0.9,0.6,1.5,0.8c0.6,0.2,1.2,0.4,1.8,0.5c0.5,0.1,0.9,0.2,1.3,0.3c0.4,0.1,0.8,0.2,1.2,0.4
					c0.3,0.2,0.6,0.4,0.8,0.6c0.2,0.3,0.3,0.6,0.3,1c0,0.5-0.1,0.9-0.3,1.2c-0.2,0.3-0.5,0.6-0.9,0.8c-0.4,0.2-0.8,0.3-1.2,0.4
					c-0.4,0.1-0.9,0.1-1.4,0.1c-0.8,0-1.6-0.1-2.3-0.2c-0.8-0.2-1.5-0.4-2.3-0.8V39c0.6,0.3,1.3,0.6,2.1,0.7
					c0.8,0.2,1.7,0.3,2.6,0.3c1,0,1.9-0.1,2.8-0.3c0.8-0.2,1.5-0.5,2.1-0.9c0.6-0.4,1-1,1.4-1.6c0.3-0.6,0.5-1.4,0.5-2.3
					c0-0.9-0.1-1.6-0.4-2.1C67.7,32.2,67.3,31.8,66.9,31.4z"/>
				<path class="st2" d="M93.8,30.1c-0.1-0.5-0.3-0.8-0.6-1.2c-0.3-0.3-0.5-0.6-0.9-0.8c-0.3-0.2-0.7-0.4-1.1-0.5
					c-0.4-0.1-0.8-0.1-1.2-0.1c-0.4,0-0.9,0.1-1.3,0.2c-0.4,0.1-0.8,0.3-1.1,0.4c-0.3,0.2-0.6,0.4-0.9,0.6c-0.3,0.2-0.5,0.5-0.6,0.7
					h0l-0.3-1.6h-2.4v11.9h2.8v-8.2c0.4-0.5,0.8-0.9,1.3-1.2c0.5-0.3,1-0.4,1.6-0.4c0.4,0,0.8,0.1,1.1,0.3c0.3,0.2,0.5,0.4,0.6,0.8
					c0.1,0.2,0.1,0.4,0.1,0.6c0,0.2,0,0.5,0,0.8v7.3H94V32c0-0.4,0-0.7,0-1C93.9,30.7,93.9,30.4,93.8,30.1z"/>
				<path class="st2" d="M80.6,36.2v-4.5c0-0.6-0.1-1.1-0.3-1.7c-0.2-0.5-0.5-0.9-1-1.3c-0.4-0.4-1-0.7-1.6-0.9
					c-0.6-0.2-1.4-0.3-2.2-0.3c-0.7,0-1.4,0.1-2.1,0.2c-0.7,0.1-1.3,0.3-1.9,0.6v2.3c0.7-0.3,1.3-0.5,1.9-0.6
					c0.6-0.1,1.2-0.2,1.7-0.2c0.5,0,0.9,0.1,1.2,0.2c0.3,0.1,0.6,0.3,0.8,0.5c0.2,0.2,0.4,0.4,0.4,0.7c0.1,0.3,0.1,0.5,0.1,0.8v0.5
					c-0.3-0.1-0.7-0.2-1.1-0.2c-0.4-0.1-0.9-0.1-1.4-0.1c-0.7,0-1.3,0.1-1.9,0.3c-0.6,0.2-1.1,0.5-1.5,0.8c-0.4,0.4-0.7,0.8-1,1.3
					c-0.2,0.5-0.3,1.1-0.3,1.7c0,0.6,0.1,1.1,0.3,1.6c0.2,0.5,0.5,0.9,0.8,1.2c0.3,0.3,0.8,0.6,1.2,0.8c0.5,0.2,1,0.3,1.5,0.3
					c0.4,0,0.8,0,1.1-0.1c0.4-0.1,0.7-0.2,1-0.4c0.3-0.2,0.5-0.3,0.8-0.5c0.2-0.2,0.4-0.4,0.6-0.5h0l0.1,1.3h2.6c0-0.4,0-0.9,0-1.5
					C80.6,37.6,80.6,37,80.6,36.2z M77.7,36.5c-0.1,0.1-0.3,0.3-0.4,0.4c-0.2,0.1-0.4,0.3-0.6,0.4c-0.2,0.1-0.5,0.2-0.7,0.3
					c-0.3,0.1-0.5,0.1-0.8,0.1c-0.2,0-0.4,0-0.7-0.1c-0.2-0.1-0.4-0.2-0.5-0.3c-0.2-0.1-0.3-0.3-0.4-0.5c-0.1-0.2-0.1-0.4-0.1-0.7
					c0-0.6,0.2-1,0.6-1.3c0.4-0.3,0.9-0.4,1.6-0.4c0.4,0,0.7,0,1.1,0.1c0.4,0.1,0.7,0.1,0.9,0.2V36.5z"/>
				<path class="st2" d="M157.6,31.2c-0.3-0.8-0.7-1.4-1.2-2c-0.5-0.5-1.1-1-1.8-1.3c-0.7-0.3-1.5-0.4-2.5-0.4
					c-0.9,0-1.7,0.1-2.4,0.4c-0.7,0.3-1.3,0.7-1.8,1.3c-0.5,0.5-0.9,1.2-1.2,2c-0.3,0.8-0.4,1.6-0.4,2.5c0,0.9,0.1,1.8,0.4,2.5
					c0.3,0.8,0.7,1.4,1.2,2c0.5,0.5,1.1,1,1.8,1.3c0.7,0.3,1.5,0.4,2.4,0.4c0.9,0,1.7-0.1,2.4-0.4c0.7-0.3,1.3-0.7,1.8-1.3
					c0.5-0.5,0.9-1.2,1.2-2c0.3-0.8,0.4-1.6,0.4-2.5C158,32.8,157.9,32,157.6,31.2z M154.8,35.4c-0.1,0.5-0.3,0.9-0.6,1.2
					c-0.3,0.3-0.6,0.6-0.9,0.7c-0.4,0.2-0.7,0.2-1.2,0.2c-0.4,0-0.8-0.1-1.2-0.2c-0.4-0.2-0.7-0.4-0.9-0.7c-0.3-0.3-0.5-0.7-0.6-1.2
					c-0.1-0.5-0.2-1-0.2-1.7s0.1-1.2,0.2-1.7c0.1-0.5,0.3-0.9,0.6-1.2c0.3-0.3,0.6-0.6,0.9-0.7c0.4-0.2,0.7-0.2,1.1-0.2
					c0.4,0,0.8,0.1,1.2,0.2c0.4,0.2,0.7,0.4,0.9,0.7c0.3,0.3,0.5,0.7,0.6,1.2c0.1,0.5,0.2,1,0.2,1.7S155,35,154.8,35.4z"/>
				<rect x="141.1" y="22" class="st2" width="2.8" height="17.7"/>
				<path class="st2" d="M124.6,36.2v-4.5c0-0.6-0.1-1.1-0.3-1.6c-0.2-0.5-0.5-0.9-1-1.3c-0.4-0.4-1-0.7-1.6-0.9
					c-0.6-0.2-1.4-0.3-2.2-0.3c-0.7,0-1.4,0.1-2.1,0.2c-0.7,0.1-1.3,0.3-1.9,0.6v2.3c0.7-0.3,1.3-0.5,1.9-0.6
					c0.6-0.1,1.2-0.2,1.7-0.2c0.5,0,0.9,0.1,1.2,0.2c0.3,0.1,0.6,0.3,0.8,0.5c0.2,0.2,0.4,0.4,0.4,0.7c0.1,0.3,0.1,0.5,0.1,0.8v0.5
					c-0.3-0.1-0.7-0.2-1.1-0.2c-0.4-0.1-0.9-0.1-1.4-0.1c-0.7,0-1.3,0.1-1.9,0.3c-0.6,0.2-1.1,0.4-1.5,0.8c-0.4,0.4-0.7,0.8-1,1.3
					c-0.2,0.5-0.3,1.1-0.3,1.7c0,0.6,0.1,1.1,0.3,1.6c0.2,0.5,0.5,0.9,0.8,1.2c0.3,0.3,0.8,0.6,1.2,0.8c0.5,0.2,1,0.3,1.5,0.3
					c0.4,0,0.8,0,1.1-0.1c0.4-0.1,0.7-0.2,1-0.4c0.3-0.2,0.5-0.3,0.8-0.5c0.2-0.2,0.4-0.4,0.6-0.5h0l0.1,1.3h2.6c0-0.4,0-0.9,0-1.5
					C124.6,37.6,124.6,37,124.6,36.2z M121.7,36.5c-0.1,0.1-0.3,0.3-0.4,0.4c-0.2,0.1-0.4,0.3-0.6,0.4c-0.2,0.1-0.5,0.2-0.7,0.3
					c-0.3,0.1-0.5,0.1-0.8,0.1c-0.2,0-0.4,0-0.7-0.1c-0.2-0.1-0.4-0.2-0.5-0.3c-0.2-0.1-0.3-0.3-0.4-0.5c-0.1-0.2-0.1-0.4-0.1-0.7
					c0-0.6,0.2-1,0.6-1.3c0.4-0.3,0.9-0.4,1.6-0.4c0.4,0,0.7,0,1.1,0.1c0.4,0.1,0.7,0.1,0.9,0.2V36.5z"/>
				<path class="st2" d="M137.1,29c-0.5-0.5-1-0.9-1.6-1.1c-0.6-0.2-1.2-0.4-1.9-0.4c-0.3,0-0.6,0-0.9,0.1c-0.3,0.1-0.6,0.1-0.8,0.2
					c-0.3,0.1-0.5,0.2-0.7,0.3c-0.2,0.1-0.4,0.2-0.6,0.4h0c0-0.2,0-0.4,0-0.7c0-0.3,0-0.6,0-1V22h-2.8v14.9c0,0.5,0,1,0,1.5
					c0,0.5,0,1,0,1.3h2.3l0.3-1.3h0c0.1,0.1,0.2,0.3,0.4,0.5c0.2,0.2,0.4,0.4,0.7,0.5c0.3,0.2,0.6,0.3,0.9,0.4
					c0.4,0.1,0.7,0.2,1.2,0.2c0.6,0,1.2-0.1,1.9-0.4c0.6-0.3,1.2-0.7,1.7-1.2c0.5-0.5,0.9-1.2,1.2-2c0.3-0.8,0.5-1.8,0.5-2.8
					c0-1-0.1-1.9-0.4-2.7C138,30.1,137.6,29.5,137.1,29z M135.5,35.3c-0.1,0.5-0.3,0.9-0.5,1.3c-0.2,0.3-0.5,0.6-0.9,0.8
					c-0.3,0.2-0.8,0.3-1.2,0.3c-0.3,0-0.5,0-0.8-0.1c-0.2-0.1-0.5-0.2-0.7-0.3c-0.2-0.1-0.4-0.3-0.5-0.4c-0.2-0.1-0.3-0.3-0.4-0.4
					v-5.7c0.4-0.3,0.7-0.5,1.2-0.7c0.4-0.2,0.8-0.3,1.3-0.3c0.3,0,0.6,0.1,0.9,0.1c0.3,0.1,0.6,0.3,0.9,0.6c0.3,0.3,0.5,0.7,0.7,1.2
					c0.2,0.5,0.3,1.2,0.3,1.9C135.7,34.3,135.7,34.9,135.5,35.3z"/>
				<path class="st2" d="M109.2,23.8c-0.5-0.1-1-0.2-1.5-0.3c-0.6-0.1-1.3-0.1-2-0.1H101v16.3h2.9v-6.4c0.2,0,0.5,0,0.7,0.1
					c0.3,0,0.5,0,0.8,0c1.1,0,2.2-0.1,3-0.4c0.9-0.2,1.6-0.6,2.2-1c0.6-0.4,1.1-1,1.4-1.6c0.3-0.6,0.5-1.3,0.5-2.1
					c0-1.2-0.3-2.1-0.9-2.9C111.1,24.7,110.3,24.1,109.2,23.8z M109.4,29.3c-0.1,0.3-0.4,0.6-0.7,0.8c-0.3,0.2-0.8,0.4-1.3,0.5
					c-0.5,0.1-1.2,0.2-2,0.2c-0.3,0-0.5,0-0.8,0c-0.3,0-0.5,0-0.6-0.1v-4.9h1.6c0.6,0,1.1,0,1.5,0.1c0.4,0,0.8,0.1,1,0.2
					c0.5,0.2,0.9,0.5,1.1,0.8c0.2,0.4,0.3,0.8,0.3,1.2C109.6,28.6,109.5,29,109.4,29.3z"/>
			</g>
		</g>
	</g>
</g>
</svg>
