<svg width="32" height="31" viewBox="0 0 32 31" xmlns="http://www.w3.org/2000/svg">
    <g fill="none" fill-rule="evenodd">
        <path d="M13.33 15.325a8.253 8.253 0 0 1 .342-11.994C16.691.63 21.339.547 24.445 3.148c2.515 2.105 3.423 5.306 2.748 8.214l3.179 3.18a.535.535 0 0 1-.361.912l-5.345.172c-3.24 2.908-8.221 2.814-11.337-.301z" stroke="#8145EC" stroke-width="1.5" stroke-linecap="round"/>
        <path d="M18.996 16.88c0-5.14-4.31-9.274-9.512-8.985-4.41.246-8.058 3.766-8.448 8.166-.315 3.562 1.453 6.731 4.216 8.452v4.903c0 .51.61.774.982.425l4.253-3.988c4.74-.256 8.51-4.17 8.51-8.974" fill="#FFF"/>
        <path d="M10.443 7.832c-4.79 0-9.017 3.829-9.407 8.229-.315 3.562 1.453 6.73 4.216 8.452v4.902c0 .511.61.775.982.426l4.253-3.988c-.044-.056.323-18.021-.044-18.021" fill="#E2D9F7"/>
        <path d="M18.996 16.88c0-5.14-4.31-9.274-9.512-8.985-4.41.246-8.058 3.766-8.448 8.166-.315 3.562 1.453 6.731 4.216 8.452v4.903c0 .51.61.774.982.425l4.253-3.988c4.74-.256 8.51-4.17 8.51-8.974z" stroke="#8145EC" stroke-width="1.5"/>
        <text font-family="Nunito-Bold, Nunito" font-size="9" font-weight="bold" fill="#8145EC" transform="translate(1 1.25)">
                        <tspan x="3.325" y="18.899">Hi</tspan>
                    </text>
        <text font-family="Nunito-Bold, Nunito" font-size="9" font-weight="bold" fill="#8145EC" transform="translate(1 1.25)">
                        <tspan x="16.323" y="9.369">...</tspan>
                    </text>
    </g>
</svg>
